<?xml version="1.0" encoding="UTF-8"?>
<svg xmlns="http://www.w3.org/2000/svg" xmlns:xlink="http://www.w3.org/1999/xlink" xmlns:serif="http://www.serif.com/" width="100%" height="100%" viewBox="0 0 1479 489" xml:space="preserve" style="fill-rule:evenodd;clip-rule:evenodd;stroke-linejoin:round;stroke-miterlimit:2;">    <g transform="matrix(1,0,0,1,-51790.3,-1426.32)">        <g transform="matrix(4.16667,0,0,4.16667,51289.5,0)">            <g transform="matrix(1,0,0,1,271.342,393.986)">                <path d="M0,6.003L0,29.013C-1.619,30.144 -3.294,31.148 -5.033,32.032C-6.771,32.919 -8.632,33.656 -10.615,34.253C-12.598,34.846 -14.732,35.307 -17.02,35.624C-19.308,35.944 -21.809,36.103 -24.524,36.103C-29.19,36.103 -33.455,35.32 -37.312,33.751C-41.171,32.178 -44.479,29.953 -47.239,27.067C-50.002,24.189 -52.143,20.702 -53.669,16.615C-55.193,12.527 -55.957,7.987 -55.957,2.982C-55.957,-2.019 -55.193,-6.56 -53.669,-10.629C-52.143,-14.703 -49.979,-18.181 -47.171,-21.06C-44.365,-23.945 -40.958,-26.171 -36.945,-27.743C-32.937,-29.313 -28.442,-30.1 -23.47,-30.1C-20.999,-30.1 -18.72,-29.933 -16.631,-29.598C-14.542,-29.259 -12.598,-28.766 -10.798,-28.105C-8.999,-27.45 -7.321,-26.645 -5.766,-25.682C-4.21,-24.719 -2.713,-23.615 -1.282,-22.362L-2.517,-20.351C-2.792,-19.893 -3.172,-19.668 -3.661,-19.668C-3.934,-19.668 -4.194,-19.726 -4.438,-19.849C-4.895,-20.034 -5.56,-20.46 -6.428,-21.133C-7.298,-21.802 -8.472,-22.503 -9.953,-23.231C-11.431,-23.968 -13.285,-24.624 -15.51,-25.202C-17.737,-25.781 -20.437,-26.071 -23.608,-26.071C-27.818,-26.071 -31.616,-25.401 -35.001,-24.059C-38.388,-22.716 -41.277,-20.794 -43.671,-18.294C-46.065,-15.792 -47.911,-12.741 -49.208,-9.142C-50.504,-5.542 -51.15,-1.504 -51.15,2.982C-51.15,7.558 -50.497,11.658 -49.184,15.29C-47.875,18.921 -46.036,21.991 -43.671,24.509C-41.307,27.023 -38.471,28.954 -35.161,30.296C-31.852,31.64 -28.2,32.304 -24.203,32.304C-21.978,32.304 -19.948,32.196 -18.119,31.966C-16.288,31.734 -14.587,31.396 -13.016,30.935C-11.445,30.478 -9.953,29.921 -8.533,29.266C-7.113,28.61 -5.688,27.868 -4.255,27.046L-4.255,9.615" style="fill:white;fill-rule:nonzero;"></path>            </g>        </g>        <g transform="matrix(4.16667,0,0,4.16667,51289.5,0)">            <g transform="matrix(1,0,0,1,293.211,388.135)">                <path d="M0,17.708L29.005,17.708L15.783,-15.002C15.571,-15.521 15.358,-16.109 15.146,-16.766C14.934,-17.422 14.716,-18.117 14.504,-18.846C14.291,-18.117 14.074,-17.422 13.866,-16.766C13.649,-16.109 13.437,-15.508 13.224,-14.957L0,17.708ZM43.33,41.225L39.712,41.225C39.288,41.225 38.935,41.107 38.664,40.881C38.388,40.655 38.175,40.357 38.021,39.986L30.38,21.186L-1.417,21.186L-9.012,39.986C-9.136,40.325 -9.349,40.615 -9.654,40.859C-9.959,41.104 -10.325,41.225 -10.75,41.225L-14.32,41.225L12.175,-23.517L16.837,-23.517L43.33,41.225Z" style="fill:white;fill-rule:nonzero;"></path>            </g>        </g>        <g transform="matrix(4.16667,0,0,4.16667,51289.5,0)">            <g transform="matrix(1,0,0,1,351.454,395.64)">                <path d="M0,2.697L0,29.968L16.242,29.968C21.949,29.968 26.249,28.741 29.147,26.286C32.046,23.831 33.493,20.376 33.493,15.924C33.493,13.88 33.104,12.039 32.326,10.412C31.553,8.779 30.427,7.39 28.962,6.247C27.501,5.102 25.702,4.225 23.563,3.615C21.424,3.005 19,2.697 16.292,2.697L0,2.697ZM0,-0.73L14.049,-0.73C17.038,-0.73 19.588,-1.115 21.713,-1.874C23.83,-2.638 25.566,-3.642 26.927,-4.895C28.284,-6.148 29.283,-7.563 29.925,-9.15C30.567,-10.738 30.884,-12.369 30.884,-14.046C30.884,-18.406 29.504,-21.711 26.742,-23.949C23.983,-26.193 19.724,-27.314 13.954,-27.314L0,-27.314L0,-0.73ZM-4.667,33.719L-4.667,-31.022L13.954,-31.022C17.648,-31.022 20.841,-30.656 23.541,-29.923C26.24,-29.191 28.478,-28.115 30.246,-26.699C32.014,-25.279 33.334,-23.547 34.203,-21.503C35.071,-19.46 35.505,-17.14 35.505,-14.548C35.505,-12.839 35.207,-11.194 34.614,-9.607C34.022,-8.025 33.154,-6.559 32.032,-5.216C30.902,-3.872 29.518,-2.706 27.89,-1.716C26.253,-0.726 24.391,0.034 22.283,0.55C27.375,1.313 31.3,3.005 34.04,5.628C36.789,8.25 38.159,11.714 38.159,16.013C38.159,18.762 37.671,21.227 36.699,23.425C35.722,25.622 34.302,27.485 32.439,29.009C30.576,30.532 28.292,31.699 25.575,32.509C22.862,33.313 19.778,33.719 16.333,33.719L-4.667,33.719Z" style="fill:white;fill-rule:nonzero;"></path>            </g>        </g>        <g transform="matrix(4.16667,0,0,4.16667,51289.5,0)">            <g transform="matrix(-1,0,-0,1,818.986,-47.911)">                <rect x="407.135" y="412.53" width="4.716" height="64.741" style="fill:white;"></rect>            </g>        </g>        <g transform="matrix(4.16667,0,0,4.16667,51289.5,0)">            <g transform="matrix(1,0,0,1,475.079,429.36)">                <path d="M0,-64.741L0,-60.758L-22.74,-60.758L-22.74,0L-27.402,0L-27.402,-60.758L-50.282,-60.758L-50.282,-64.741L0,-64.741Z" style="fill:white;fill-rule:nonzero;"></path>            </g>        </g>        <g transform="matrix(4.16667,0,0,4.16667,51289.5,0)">            <g transform="matrix(1,0,0,1,288.938,443.766)">                <path d="M0,11.133C0.769,11.133 1.442,11.002 2.026,10.731C2.607,10.464 3.093,10.084 3.482,9.606C3.869,9.121 4.158,8.537 4.354,7.856C4.551,7.177 4.646,6.417 4.646,5.59C4.646,4.762 4.551,4.007 4.354,3.315C4.158,2.633 3.869,2.04 3.482,1.552C3.093,1.063 2.607,0.68 2.026,0.408C1.442,0.137 0.769,0 0,0C-0.773,0 -1.449,0.137 -2.028,0.408C-2.607,0.68 -3.09,1.063 -3.479,1.552C-3.866,2.04 -4.158,2.633 -4.352,3.315C-4.546,4.007 -4.646,4.762 -4.646,5.59C-4.646,6.417 -4.546,7.177 -4.352,7.856C-4.158,8.537 -3.866,9.121 -3.479,9.606C-3.09,10.084 -2.607,10.464 -2.028,10.731C-1.449,11.002 -0.773,11.133 0,11.133M0,-0.23C0.792,-0.23 1.492,-0.09 2.105,0.191C2.72,0.471 3.235,0.864 3.651,1.371C4.07,1.877 4.386,2.488 4.603,3.202C4.816,3.921 4.924,4.717 4.924,5.59C4.924,6.463 4.816,7.254 4.603,7.963C4.386,8.674 4.07,9.279 3.651,9.785C3.235,10.292 2.72,10.682 2.105,10.957C1.492,11.229 0.792,11.363 0,11.363C-0.796,11.363 -1.499,11.229 -2.109,10.957C-2.72,10.682 -3.233,10.292 -3.651,9.785C-4.067,9.279 -4.384,8.674 -4.601,7.963C-4.815,7.254 -4.922,6.463 -4.922,5.59C-4.922,4.717 -4.815,3.921 -4.601,3.202C-4.384,2.488 -4.067,1.877 -3.651,1.371C-3.233,0.864 -2.72,0.471 -2.109,0.191C-1.499,-0.09 -0.796,-0.23 0,-0.23" style="fill:white;fill-rule:nonzero;"></path>            </g>        </g>        <g transform="matrix(4.16667,0,0,4.16667,51289.5,0)">            <g transform="matrix(1,0,0,1,288.938,454.306)">                <path d="M0,-10.101C-0.703,-10.101 -1.323,-9.98 -1.842,-9.735C-2.356,-9.496 -2.79,-9.152 -3.133,-8.718C-3.484,-8.275 -3.75,-7.732 -3.929,-7.103C-4.112,-6.456 -4.208,-5.734 -4.208,-4.951C-4.208,-4.164 -4.112,-3.445 -3.929,-2.808C-3.753,-2.183 -3.486,-1.646 -3.136,-1.211C-2.79,-0.783 -2.356,-0.443 -1.845,-0.207C-1.327,0.032 -0.708,0.155 0,0.155C0.701,0.155 1.32,0.032 1.84,-0.207C2.358,-0.443 2.792,-0.783 3.14,-1.211C3.486,-1.646 3.753,-2.183 3.932,-2.808C4.115,-3.441 4.208,-4.164 4.208,-4.951C4.208,-5.738 4.115,-6.461 3.932,-7.103C3.751,-7.736 3.484,-8.275 3.136,-8.712C2.79,-9.152 2.354,-9.496 1.84,-9.735C1.316,-9.98 0.699,-10.101 0,-10.101M0,1.262C-0.85,1.262 -1.621,1.113 -2.288,0.819C-2.957,0.516 -3.529,0.082 -3.988,-0.474C-4.442,-1.027 -4.791,-1.691 -5.019,-2.451C-5.245,-3.197 -5.36,-4.038 -5.36,-4.951C-5.36,-5.865 -5.245,-6.71 -5.021,-7.464C-4.789,-8.234 -4.442,-8.904 -3.988,-9.451C-3.529,-10.006 -2.959,-10.445 -2.292,-10.747C-0.965,-11.359 0.943,-11.363 2.288,-10.747C2.962,-10.445 3.534,-10.006 3.991,-9.451C4.443,-8.904 4.791,-8.234 5.024,-7.464C5.248,-6.705 5.363,-5.86 5.363,-4.951C5.363,-4.042 5.248,-3.201 5.024,-2.451C4.791,-1.691 4.445,-1.027 3.991,-0.474C3.532,0.082 2.959,0.516 2.284,0.819C1.612,1.113 0.846,1.262 0,1.262" style="fill:white;fill-rule:nonzero;"></path>            </g>        </g>        <g transform="matrix(4.16667,0,0,4.16667,51289.5,0)">            <g transform="matrix(1,0,0,1,297.473,454.99)">                <path d="M0,-16.559L0,-6.163L0.529,-6.163C0.6,-6.163 0.679,-6.173 0.771,-6.187C0.864,-6.2 0.968,-6.263 1.083,-6.371L6.439,-11.083C6.502,-11.146 6.566,-11.192 6.625,-11.224C6.688,-11.255 6.765,-11.269 6.855,-11.269L7.063,-11.269L1.357,-6.281C1.257,-6.187 1.162,-6.122 1.072,-6.081C1.178,-6.05 1.269,-6.009 1.346,-5.964C1.422,-5.915 1.497,-5.857 1.565,-5.797L7.524,0L7.316,0C7.253,0 7.199,-0.005 7.154,-0.023C7.108,-0.037 7.054,-0.078 6.991,-0.136L1.334,-5.634C1.273,-5.693 1.214,-5.747 1.158,-5.788C1.099,-5.83 1.038,-5.865 0.973,-5.888C0.907,-5.91 0.834,-5.929 0.755,-5.937C0.674,-5.951 0.574,-5.955 0.461,-5.955L0,-5.955L0,0L-0.275,0L-0.275,-16.559L0,-16.559Z" style="fill:white;fill-rule:nonzero;"></path>            </g>        </g>        <g transform="matrix(4.16667,0,0,4.16667,51289.5,0)">            <g transform="matrix(1,0,0,1,306.073,437.992)">                <path d="M0,17.436L-1.284,17.436C-1.388,17.436 -1.483,17.422 -1.578,17.395C-1.696,17.354 -1.8,17.288 -1.917,17.174L-7.572,11.68C-7.619,11.63 -7.664,11.594 -7.705,11.563C-7.816,11.508 -7.859,11.499 -7.902,11.495C-7.967,11.485 -8.046,11.481 -8.139,11.481L-8.162,11.481L-8.162,17.436L-9.315,17.436L-9.315,0L-8.162,0L-8.162,10.395L-8.071,10.395C-8.024,10.395 -7.967,10.391 -7.906,10.377C-7.909,10.377 -7.877,10.364 -7.818,10.31L-2.451,5.584C-2.378,5.508 -2.279,5.436 -2.17,5.381C-2.048,5.318 -1.908,5.291 -1.745,5.291L-0.371,5.291L-6.751,10.871C-6.749,10.871 -6.747,10.871 -6.747,10.875L0,17.436Z" style="fill:white;fill-rule:nonzero;"></path>            </g>        </g>        <g transform="matrix(4.16667,0,0,4.16667,51289.5,0)">            <g transform="matrix(1,0,0,1,307.71,443.536)">                <path d="M0,11.454L0,0.185L0.072,0.185C0.177,0.185 0.231,0.244 0.231,0.371L0.263,2.541C0.524,2.157 0.818,1.808 1.144,1.497C1.47,1.181 1.818,0.914 2.198,0.687C2.573,0.467 2.966,0.299 3.382,0.177C3.798,0.058 4.224,0 4.667,0C5.919,0 6.855,0.371 7.47,1.117C8.085,1.859 8.397,2.898 8.397,4.232L8.397,11.454L8.121,11.454L8.121,4.232C8.121,3.604 8.049,3.043 7.913,2.551C7.777,2.053 7.561,1.633 7.276,1.289C6.986,0.941 6.629,0.683 6.195,0.502C5.761,0.316 5.254,0.23 4.667,0.23C3.79,0.23 2.976,0.467 2.234,0.936C1.488,1.406 0.832,2.058 0.276,2.885L0.276,11.454L0,11.454Z" style="fill:white;fill-rule:nonzero;"></path>            </g>        </g>        <g transform="matrix(4.16667,0,0,4.16667,51289.5,0)">            <g transform="matrix(1,0,0,1,316.546,443.092)">                <path d="M0,12.336L-1.158,12.336L-1.158,4.676C-1.158,4.093 -1.221,3.565 -1.348,3.111C-1.465,2.674 -1.646,2.316 -1.899,2.014C-2.144,1.719 -2.442,1.506 -2.813,1.348C-3.184,1.194 -3.645,1.113 -4.169,1.113C-4.96,1.113 -5.702,1.33 -6.367,1.75C-7.027,2.166 -7.615,2.746 -8.121,3.465L-8.121,12.336L-9.274,12.336L-9.274,0.191L-8.836,0.191C-8.411,0.191 -8.167,0.448 -8.167,0.815L-8.153,1.777C-8.104,1.729 -8.049,1.674 -7.995,1.624C-7.651,1.289 -7.267,0.996 -6.864,0.756C-6.457,0.516 -6.023,0.326 -5.576,0.199C-5.114,0.068 -4.64,0 -4.169,0C-2.786,0 -1.728,0.436 -1.026,1.28C-0.344,2.099 0,3.242 0,4.676L0,12.336Z" style="fill:white;fill-rule:nonzero;"></path>            </g>        </g>        <g transform="matrix(4.16667,0,0,4.16667,51289.5,0)">            <g transform="matrix(1,0,0,1,322.089,443.767)">                <path d="M0,11.177C0.524,11.177 1.004,11.118 1.438,10.992C1.863,10.87 2.261,10.707 2.618,10.499C2.98,10.291 3.314,10.052 3.626,9.781C3.934,9.509 4.237,9.224 4.531,8.921L4.531,5.448C2.112,5.531 0.321,5.828 -0.85,6.353C-2.017,6.878 -2.604,7.618 -2.604,8.577C-2.604,9.031 -2.528,9.419 -2.378,9.744C-2.229,10.07 -2.035,10.341 -1.791,10.554C-1.546,10.761 -1.275,10.919 -0.963,11.025C-0.651,11.128 -0.334,11.177 0,11.177M4.757,11.223C4.648,11.223 4.599,11.164 4.599,11.042L4.531,9.21C4.205,9.55 3.884,9.853 3.563,10.124C3.242,10.4 2.898,10.63 2.542,10.816C2.179,11.001 1.791,11.151 1.375,11.255C0.963,11.359 0.506,11.408 0,11.408C-0.339,11.408 -0.678,11.359 -1.022,11.255C-1.361,11.151 -1.673,10.984 -1.944,10.757C-2.225,10.531 -2.446,10.241 -2.618,9.884C-2.794,9.527 -2.876,9.093 -2.876,8.577C-2.876,8.072 -2.731,7.618 -2.437,7.216C-2.143,6.814 -1.687,6.47 -1.076,6.186C-0.47,5.906 0.298,5.679 1.23,5.517C2.152,5.349 3.255,5.249 4.531,5.222L4.531,3.776C4.531,3.179 4.463,2.65 4.332,2.184C4.205,1.714 4.011,1.32 3.757,0.999C3.509,0.679 3.188,0.429 2.803,0.257C2.419,0.085 1.976,-0.001 1.47,-0.001C1.067,-0.001 0.71,0.04 0.389,0.122C0.063,0.208 -0.222,0.316 -0.475,0.439C-0.728,0.56 -0.95,0.692 -1.135,0.837C-1.32,0.986 -1.483,1.116 -1.628,1.243C-1.763,1.365 -1.872,1.465 -1.958,1.551C-2.044,1.636 -2.107,1.677 -2.143,1.677C-2.17,1.677 -2.211,1.656 -2.256,1.61L-2.306,1.564C-1.754,0.982 -1.18,0.538 -0.588,0.23C0,-0.077 0.687,-0.231 1.47,-0.231C2.044,-0.231 2.542,-0.14 2.958,0.045C3.378,0.23 3.726,0.493 3.997,0.837C4.278,1.185 4.477,1.605 4.612,2.098C4.739,2.595 4.802,3.152 4.802,3.776L4.802,11.223L4.757,11.223Z" style="fill:white;fill-rule:nonzero;"></path>            </g>        </g>        <g transform="matrix(4.16667,0,0,4.16667,51289.5,0)">            <g transform="matrix(1,0,0,1,326.177,449.033)">                <path d="M0,0.639C-2.116,0.739 -3.717,1.024 -4.757,1.489C-5.761,1.942 -6.249,2.537 -6.249,3.311C-6.249,3.7 -6.19,4.03 -6.068,4.297C-5.941,4.569 -5.783,4.785 -5.589,4.952C-5.39,5.129 -5.168,5.256 -4.91,5.342C-4.205,5.576 -3.382,5.482 -2.776,5.305C-2.378,5.192 -2.007,5.038 -1.687,4.854C-1.352,4.659 -1.04,4.432 -0.75,4.184C-0.493,3.957 -0.244,3.723 0,3.479L0,0.639ZM-4.087,6.58C-4.477,6.58 -4.86,6.522 -5.236,6.405C-5.629,6.286 -5.991,6.096 -6.312,5.83C-6.638,5.563 -6.904,5.219 -7.099,4.808C-7.302,4.397 -7.406,3.89 -7.406,3.311C-7.406,2.714 -7.226,2.172 -6.882,1.692C-6.538,1.227 -6.022,0.833 -5.349,0.522C-4.702,0.223 -3.893,-0.017 -2.939,-0.184C-2.098,-0.334 -1.112,-0.433 0,-0.474L0,-1.491C0,-2.043 -0.059,-2.541 -0.176,-2.965C-0.289,-3.377 -0.461,-3.724 -0.673,-3.996C-0.881,-4.263 -1.148,-4.466 -1.465,-4.607C-2.053,-4.873 -2.939,-4.882 -3.59,-4.715C-3.879,-4.642 -4.142,-4.543 -4.372,-4.435C-4.594,-4.326 -4.793,-4.209 -4.956,-4.082C-5.132,-3.941 -5.29,-3.815 -5.421,-3.697C-5.553,-3.585 -5.652,-3.485 -5.733,-3.408C-5.86,-3.277 -6.022,-3.146 -6.23,-3.146C-6.457,-3.146 -6.606,-3.299 -6.656,-3.345L-6.954,-3.648L-6.71,-4.006C-6.127,-4.621 -5.507,-5.099 -4.879,-5.425C-4.228,-5.769 -3.468,-5.941 -2.618,-5.941C-1.989,-5.941 -1.429,-5.832 -0.949,-5.624C-0.47,-5.412 -0.063,-5.103 0.253,-4.701C0.57,-4.308 0.801,-3.829 0.945,-3.281C1.085,-2.748 1.158,-2.16 1.158,-1.491L1.158,6.395L0.715,6.395C0.317,6.395 0.073,6.142 0.073,5.776L0.041,4.948C-0.054,5.034 -0.145,5.116 -0.239,5.192C-0.587,5.487 -0.958,5.735 -1.347,5.938C-1.741,6.142 -2.161,6.305 -2.604,6.412C-3.043,6.522 -3.545,6.58 -4.087,6.58" style="fill:white;fill-rule:nonzero;"></path>            </g>        </g>        <g transform="matrix(4.16667,0,0,4.16667,51289.5,0)">            <g transform="matrix(1,0,0,1,0,54.958)">                <rect x="336.396" y="382.759" width="0.226" height="21.414" style="fill:white;"></rect>            </g>        </g>        <g transform="matrix(4.16667,0,0,4.16667,51289.5,0)">            <g transform="matrix(-1,0,-0,1,673.018,54.959)">                <rect x="335.953" y="382.319" width="1.112" height="22.293" style="fill:white;"></rect>            </g>        </g>        <g transform="matrix(4.16667,0,0,4.16667,51289.5,0)">            <g transform="matrix(1,0,0,1,350.057,438.661)">                <path d="M0,16.238C0.836,16.238 1.614,16.004 2.329,15.537C3.043,15.067 3.667,14.426 4.187,13.607L4.187,7.267C3.685,6.476 3.133,5.92 2.527,5.593C1.921,5.263 1.225,5.105 0.438,5.105C-0.353,5.105 -1.04,5.251 -1.624,5.535C-2.202,5.825 -2.69,6.222 -3.08,6.729C-3.464,7.231 -3.753,7.828 -3.948,8.506C-4.138,9.193 -4.232,9.93 -4.232,10.717C-4.232,12.59 -3.875,13.978 -3.156,14.883C-2.438,15.787 -1.388,16.238 0,16.238M4.391,16.329C4.287,16.329 4.232,16.27 4.232,16.148L4.187,13.972C3.681,14.742 3.07,15.347 2.351,15.795C1.632,16.243 0.85,16.468 0,16.468C-1.465,16.468 -2.582,15.999 -3.351,15.058C-4.124,14.117 -4.508,12.675 -4.508,10.717C-4.508,9.904 -4.404,9.144 -4.201,8.429C-3.993,7.715 -3.681,7.095 -3.27,6.571C-2.854,6.047 -2.338,5.631 -1.723,5.328C-1.099,5.025 -0.385,4.875 0.438,4.875C1.266,4.875 1.989,5.039 2.609,5.369C3.233,5.699 3.757,6.209 4.187,6.901L4.187,-0.23L4.463,-0.23L4.463,16.329L4.391,16.329Z" style="fill:white;fill-rule:nonzero;"></path>            </g>        </g>        <g transform="matrix(4.16667,0,0,4.16667,51289.5,0)">            <g transform="matrix(1,0,0,1,350.495,449.355)">                <path d="M0,-5.15C-0.719,-5.15 -1.348,-5.023 -1.863,-4.765C-2.383,-4.507 -2.822,-4.151 -3.165,-3.703C-3.518,-3.242 -3.785,-2.691 -3.961,-2.066C-4.142,-1.429 -4.232,-0.723 -4.232,0.023C-4.232,1.786 -3.902,3.092 -3.251,3.916C-2.614,4.716 -1.696,5.106 -0.438,5.106C0.303,5.106 1.008,4.893 1.65,4.477C2.279,4.065 2.84,3.496 3.31,2.782L3.31,-3.296C2.871,-3.965 2.396,-4.441 1.881,-4.716C1.348,-5.005 0.714,-5.15 0,-5.15M-0.438,6.213C-2.035,6.213 -3.274,5.684 -4.133,4.639C-4.965,3.626 -5.39,2.071 -5.39,0.023C-5.39,-0.828 -5.277,-1.636 -5.056,-2.387C-4.834,-3.156 -4.495,-3.83 -4.052,-4.395C-3.6,-4.969 -3.025,-5.431 -2.352,-5.761C-1.673,-6.091 -0.886,-6.263 0,-6.263C0.896,-6.263 1.691,-6.078 2.378,-5.715C2.713,-5.535 3.025,-5.308 3.31,-5.037L3.31,-11.363L4.463,-11.363L4.463,6.073L4.024,6.073C3.608,6.073 3.355,5.811 3.355,5.454L3.337,4.504C2.975,4.879 2.577,5.204 2.144,5.471C1.365,5.964 0.493,6.213 -0.438,6.213" style="fill:white;fill-rule:nonzero;"></path>            </g>        </g>        <g transform="matrix(4.16667,0,0,4.16667,51289.5,0)">            <g transform="matrix(1,0,0,1,358.729,443.536)">                <path d="M0,11.454L0,0.185L0.067,0.185C0.176,0.185 0.23,0.244 0.23,0.371L0.262,3.496C0.425,2.939 0.624,2.442 0.863,2.008C1.099,1.574 1.379,1.207 1.705,0.91C2.021,0.611 2.392,0.385 2.799,0.23C3.21,0.078 3.671,0 4.183,0C4.553,0 4.896,0.037 5.209,0.113C5.521,0.19 5.828,0.299 6.118,0.434L6.072,0.529C6.054,0.553 6.045,0.574 6.032,0.593C6.018,0.611 5.991,0.62 5.955,0.62C5.919,0.62 5.855,0.601 5.765,0.566C5.679,0.525 5.566,0.484 5.421,0.434C5.281,0.389 5.104,0.349 4.906,0.312C4.702,0.271 4.463,0.254 4.183,0.254C3.179,0.254 2.365,0.584 1.75,1.244C1.125,1.904 0.637,2.836 0.275,4.047L0.275,11.454L0,11.454Z" style="fill:white;fill-rule:nonzero;"></path>            </g>        </g>        <g transform="matrix(4.16667,0,0,4.16667,51289.5,0)">            <g transform="matrix(1,0,0,1,359.443,443.016)">                <path d="M0,12.412L-1.153,12.412L-1.153,0.267L-0.714,0.267C-0.293,0.267 -0.045,0.524 -0.045,0.891L-0.031,1.976C0.181,1.641 0.425,1.351 0.692,1.107C1.049,0.773 1.47,0.512 1.931,0.34C2.709,0.045 3.753,0 4.599,0.208C4.942,0.294 5.277,0.412 5.594,0.56L6,0.75L5.702,1.33C5.644,1.43 5.431,1.726 4.879,1.488C4.798,1.451 4.694,1.416 4.572,1.37C4.445,1.334 4.292,1.298 4.11,1.262C3.934,1.23 3.722,1.212 3.469,1.212C2.582,1.212 1.891,1.492 1.353,2.062C0.792,2.658 0.339,3.522 0,4.635L0,12.412Z" style="fill:white;fill-rule:nonzero;"></path>            </g>        </g>        <g transform="matrix(4.16667,0,0,4.16667,51289.5,0)">            <g transform="matrix(1,0,0,1,374.967,454.876)">                <path d="M0,-11.042C0,-11.019 -0.004,-11.001 -0.018,-10.987C-0.027,-10.97 -0.045,-10.942 -0.063,-10.906L-7.958,-0.117L-0.344,-0.117L-0.344,0.113L-8.347,0.113L-8.347,0.046C-8.347,0.009 -8.343,-0.019 -8.329,-0.036C-8.32,-0.05 -8.302,-0.077 -8.279,-0.117L-0.38,-10.929L-7.958,-10.929L-7.958,-11.155L0,-11.155L0,-11.042Z" style="fill:white;fill-rule:nonzero;"></path>            </g>        </g>        <g transform="matrix(4.16667,0,0,4.16667,51289.5,0)">            <g transform="matrix(1,0,0,1,375.061,443.283)">                <path d="M0,12.145L-8.885,12.145L-8.885,11.707C-8.885,11.502 -8.849,11.39 -8.776,11.295L-8.731,11.218L-1.338,1.103L-8.492,1.103L-8.492,0L0.349,0L0.349,0.225L0.394,0.225L0.349,0.29L0.349,0.701L0.24,0.877L-7.185,11.038L0,11.038L0,12.145Z" style="fill:white;fill-rule:nonzero;"></path>            </g>        </g>        <g transform="matrix(4.16667,0,0,4.16667,51289.5,0)">            <g transform="matrix(1,0,0,1,376.278,454.918)">                <path d="M0,-11.197L0.163,-11.197C0.226,-11.197 0.271,-11.183 0.298,-11.146C0.334,-11.111 0.353,-11.074 0.371,-11.039L3.821,-0.711C3.853,-0.625 3.879,-0.543 3.907,-0.467C3.934,-0.394 3.952,-0.312 3.97,-0.226C3.988,-0.312 4.006,-0.394 4.033,-0.467C4.061,-0.543 4.087,-0.625 4.119,-0.711L7.705,-11.152C7.732,-11.228 7.768,-11.269 7.822,-11.269L7.89,-11.269C7.944,-11.269 7.985,-11.228 8.003,-11.152L11.571,-0.711C11.603,-0.625 11.63,-0.539 11.657,-0.457C11.684,-0.371 11.702,-0.299 11.72,-0.236C11.761,-0.384 11.811,-0.539 11.874,-0.711L15.319,-11.039C15.374,-11.146 15.446,-11.197 15.527,-11.197L15.69,-11.197L11.824,0.072L11.711,0.072C11.639,0.072 11.594,0.035 11.571,-0.041L7.958,-10.532C7.913,-10.654 7.877,-10.762 7.858,-10.853C7.841,-10.799 7.822,-10.75 7.805,-10.699C7.786,-10.65 7.768,-10.592 7.755,-10.532L4.097,-0.041C4.074,0.035 4.033,0.072 3.979,0.072L3.866,0.072L0,-11.197Z" style="fill:white;fill-rule:nonzero;"></path>            </g>        </g>        <g transform="matrix(4.16667,0,0,4.16667,51289.5,0)">            <g transform="matrix(1,0,0,1,380.23,442.325)">                <path d="M0,14.791L-0.299,13.104L-0.398,13.104L-4.567,0.959L-3.79,0.959C-3.541,0.959 -3.392,1.071 -3.314,1.171C-3.261,1.225 -3.211,1.307 -3.175,1.401L0.022,10.961L3.337,1.297C3.4,1.094 3.536,0.977 3.676,0.922L3.934,0L4.164,0.945C4.305,1.004 4.417,1.121 4.477,1.315L7.768,10.955L10.951,1.42C11.105,1.103 11.322,0.959 11.575,0.959L12.353,0.959L8.184,13.104L8.021,13.104L7.759,14.085L7.492,13.045C7.352,12.973 7.252,12.846 7.198,12.679L3.902,3.102L0.561,12.697C0.515,12.842 0.434,12.945 0.343,13.009L0,14.791Z" style="fill:white;fill-rule:nonzero;"></path>            </g>        </g>        <g transform="matrix(4.16667,0,0,4.16667,51289.5,0)">            <g transform="matrix(1,0,0,1,0,51.987)">                <path d="M395.007,403.003L394.727,403.003L394.727,391.734L395.007,391.734L395.007,403.003ZM395.509,387.547C395.509,387.705 395.441,387.85 395.306,387.976C395.175,388.103 395.025,388.167 394.862,388.167C394.691,388.167 394.537,388.103 394.41,387.976C394.284,387.85 394.221,387.705 394.221,387.547C394.221,387.371 394.284,387.216 394.41,387.091C394.537,386.965 394.691,386.9 394.862,386.9C395.025,386.9 395.175,386.965 395.306,387.091C395.441,387.216 395.509,387.371 395.509,387.547" style="fill:white;fill-rule:nonzero;"></path>            </g>        </g>        <g transform="matrix(4.16667,0,0,4.16667,51289.5,0)">            <g transform="matrix(1,0,0,1,394.862,454.442)">                <path d="M0,-15.116C-0.054,-15.116 -0.095,-15.098 -0.14,-15.054C-0.185,-15.008 -0.199,-14.971 -0.199,-14.909C-0.199,-14.886 -0.199,-14.849 -0.14,-14.786C-0.099,-14.745 -0.054,-14.727 0,-14.727C0.023,-14.727 0.073,-14.727 0.145,-14.796C0.208,-14.858 0.208,-14.889 0.208,-14.909C0.208,-14.954 0.199,-14.995 0.145,-15.044C0.073,-15.116 0.023,-15.116 0,-15.116M0,-13.85C-0.289,-13.85 -0.551,-13.959 -0.759,-14.167C-0.967,-14.375 -1.081,-14.633 -1.081,-14.909C-1.081,-15.202 -0.967,-15.465 -0.759,-15.673C-0.357,-16.075 0.308,-16.102 0.751,-15.681C0.968,-15.473 1.085,-15.202 1.085,-14.909C1.085,-14.714 1.031,-14.429 0.751,-14.163C0.534,-13.954 0.276,-13.85 0,-13.85M0.579,0.986L-0.569,0.986L-0.569,-11.159L0.579,-11.159L0.579,0.986Z" style="fill:white;fill-rule:nonzero;"></path>            </g>        </g>        <g transform="matrix(4.16667,0,0,4.16667,51289.5,0)">            <g transform="matrix(1,0,0,1,0,54.958)">                <rect x="405.19" y="382.759" width="0.235" height="21.414" style="fill:white;"></rect>            </g>        </g>        <g transform="matrix(4.16667,0,0,4.16667,51289.5,0)">            <g transform="matrix(-1,0,-0,1,810.615,54.959)">                <rect x="404.756" y="382.319" width="1.103" height="22.293" style="fill:white;"></rect>            </g>        </g>        <g transform="matrix(4.16667,0,0,4.16667,51289.5,0)">            <g transform="matrix(1,0,0,1,415.613,438.729)">                <path d="M0,16.261L0,5.703L-1.885,5.657C-1.976,5.657 -2.021,5.625 -2.021,5.567L-2.021,5.477L0,5.477L0,3.749C0,3.103 0.077,2.547 0.231,2.076C0.384,1.606 0.597,1.217 0.869,0.91C1.144,0.602 1.465,0.376 1.84,0.223C2.216,0.073 2.632,0 3.084,0C3.306,0 3.536,0.024 3.776,0.065C4.011,0.105 4.21,0.168 4.373,0.254L4.346,0.344C4.332,0.395 4.31,0.412 4.264,0.412C4.192,0.412 4.065,0.381 3.88,0.323C3.704,0.258 3.432,0.231 3.084,0.231C2.682,0.231 2.311,0.295 1.972,0.421C1.632,0.547 1.334,0.746 1.081,1.028C0.828,1.307 0.628,1.674 0.489,2.121C0.348,2.569 0.276,3.112 0.276,3.749L0.276,5.477L4.3,5.477L4.3,5.703L0.276,5.703L0.276,16.261L0,16.261Z" style="fill:white;fill-rule:nonzero;"></path>            </g>        </g>        <g transform="matrix(4.16667,0,0,4.16667,51289.5,0)">            <g transform="matrix(1,0,0,1,416.327,438.213)">                <path d="M0,17.215L-1.153,17.215L-1.153,6.648L-2.609,6.611C-2.979,6.611 -3.179,6.345 -3.179,6.082L-3.179,5.553L-1.153,5.553L-1.153,4.265C-1.153,3.565 -1.071,2.971 -0.899,2.456C-0.732,1.932 -0.488,1.488 -0.176,1.136C0.141,0.774 0.525,0.508 0.963,0.33C1.597,0.082 2.302,0 3.134,0.146C3.423,0.195 3.663,0.272 3.862,0.381L4.165,0.543L4.061,0.964C3.97,1.231 3.78,1.371 3.55,1.371C3.423,1.371 3.27,1.334 3.025,1.254C2.948,1.227 2.763,1.186 2.37,1.186C2.021,1.186 1.705,1.24 1.411,1.348C1.135,1.452 0.9,1.611 0.692,1.836C0.484,2.072 0.312,2.384 0.195,2.768C0.068,3.17 0,3.672 0,4.265L0,5.553L4.024,5.553L4.024,6.661L0,6.661L0,17.215Z" style="fill:white;fill-rule:nonzero;"></path>            </g>        </g>        <g transform="matrix(4.16667,0,0,4.16667,51289.5,0)">            <g transform="matrix(1,0,0,1,424.561,443.767)">                <path d="M0,11.177C0.529,11.177 1.008,11.118 1.438,10.992C1.863,10.87 2.261,10.707 2.623,10.499C2.984,10.291 3.319,10.052 3.626,9.781C3.938,9.509 4.241,9.224 4.531,8.921L4.531,5.448C2.116,5.531 0.326,5.828 -0.846,6.353C-2.017,6.878 -2.6,7.618 -2.6,8.577C-2.6,9.031 -2.523,9.419 -2.374,9.744C-2.225,10.07 -2.03,10.341 -1.791,10.554C-1.546,10.761 -1.275,10.919 -0.958,11.025C-0.651,11.128 -0.33,11.177 0,11.177M4.762,11.223C4.657,11.223 4.599,11.164 4.599,11.042L4.531,9.21C4.21,9.55 3.889,9.853 3.568,10.124C3.247,10.4 2.903,10.63 2.541,10.816C2.18,11.001 1.791,11.151 1.379,11.255C0.968,11.359 0.506,11.408 0,11.408C-0.334,11.408 -0.678,11.359 -1.018,11.255C-1.356,11.151 -1.668,10.984 -1.944,10.757C-2.22,10.531 -2.442,10.241 -2.613,9.884C-2.79,9.527 -2.876,9.093 -2.876,8.577C-2.876,8.072 -2.727,7.618 -2.433,7.216C-2.139,6.814 -1.682,6.47 -1.076,6.186C-0.47,5.906 0.303,5.679 1.23,5.517C2.161,5.349 3.256,5.249 4.531,5.222L4.531,3.776C4.531,3.179 4.468,2.65 4.336,2.184C4.205,1.714 4.016,1.32 3.762,0.999C3.509,0.679 3.188,0.429 2.804,0.257C2.424,0.085 1.98,-0.001 1.474,-0.001C1.072,-0.001 0.714,0.04 0.389,0.122C0.068,0.208 -0.217,0.316 -0.47,0.439C-0.724,0.56 -0.945,0.692 -1.13,0.837C-1.32,0.986 -1.483,1.116 -1.619,1.243C-1.759,1.365 -1.872,1.465 -1.953,1.551C-2.039,1.636 -2.098,1.677 -2.139,1.677C-2.17,1.677 -2.207,1.656 -2.252,1.61L-2.302,1.564C-1.745,0.982 -1.176,0.538 -0.588,0.23C0.004,-0.077 0.687,-0.231 1.474,-0.231C2.048,-0.231 2.541,-0.14 2.962,0.045C3.382,0.23 3.726,0.493 4.002,0.837C4.277,1.185 4.481,1.605 4.612,2.098C4.743,2.595 4.807,3.152 4.807,3.776L4.807,11.223L4.762,11.223Z" style="fill:white;fill-rule:nonzero;"></path>            </g>        </g>        <g transform="matrix(4.16667,0,0,4.16667,51289.5,0)">            <g transform="matrix(1,0,0,1,428.654,449.033)">                <path d="M0,0.639C-2.121,0.739 -3.721,1.024 -4.757,1.489C-5.765,1.942 -6.253,2.537 -6.253,3.311C-6.253,3.7 -6.19,4.03 -6.068,4.297C-5.946,4.564 -5.788,4.785 -5.593,4.957C-5.39,5.129 -5.168,5.256 -4.916,5.342C-4.21,5.576 -3.382,5.482 -2.776,5.305C-2.374,5.192 -2.012,5.038 -1.687,4.854C-1.352,4.659 -1.036,4.432 -0.755,4.184C-0.493,3.957 -0.244,3.723 0,3.479L0,0.639ZM-4.092,6.58C-4.477,6.58 -4.861,6.522 -5.241,6.405C-5.634,6.286 -5.996,6.092 -6.317,5.83C-6.643,5.563 -6.905,5.215 -7.104,4.808C-7.303,4.392 -7.407,3.89 -7.407,3.311C-7.407,2.714 -7.23,2.172 -6.877,1.692C-6.543,1.231 -6.028,0.838 -5.354,0.526C-4.708,0.223 -3.893,-0.017 -2.935,-0.184C-2.098,-0.334 -1.108,-0.433 0,-0.474L0,-1.491C0,-2.043 -0.059,-2.541 -0.176,-2.965C-0.294,-3.377 -0.461,-3.724 -0.674,-3.996C-0.882,-4.263 -1.148,-4.466 -1.465,-4.607C-2.048,-4.873 -2.935,-4.882 -3.595,-4.715C-3.875,-4.642 -4.142,-4.548 -4.373,-4.435C-4.599,-4.326 -4.797,-4.205 -4.96,-4.082C-5.132,-3.941 -5.291,-3.815 -5.421,-3.697C-5.553,-3.58 -5.657,-3.485 -5.738,-3.404C-5.955,-3.187 -6.344,-3.033 -6.661,-3.349L-6.959,-3.652L-6.715,-4.006C-6.127,-4.621 -5.512,-5.099 -4.883,-5.425C-4.228,-5.769 -3.468,-5.941 -2.618,-5.941C-1.99,-5.941 -1.429,-5.832 -0.954,-5.624C-0.475,-5.412 -0.068,-5.103 0.253,-4.701C0.565,-4.308 0.8,-3.829 0.945,-3.281C1.085,-2.744 1.153,-2.16 1.153,-1.491L1.153,6.395L0.714,6.395C0.321,6.395 0.068,6.133 0.068,5.776L0.041,4.948C-0.054,5.034 -0.149,5.116 -0.24,5.192C-0.588,5.487 -0.958,5.739 -1.348,5.938C-1.741,6.147 -2.166,6.305 -2.609,6.412C-3.043,6.522 -3.55,6.58 -4.092,6.58" style="fill:white;fill-rule:nonzero;"></path>            </g>        </g>        <g transform="matrix(4.16667,0,0,4.16667,51289.5,0)">            <g transform="matrix(1,0,0,1,439.103,453.999)">                <path d="M0,-9.288C-0.036,-9.243 -0.072,-9.22 -0.118,-9.22C-0.181,-9.22 -0.271,-9.269 -0.389,-9.378C-0.506,-9.477 -0.678,-9.595 -0.904,-9.722C-1.135,-9.849 -1.42,-9.966 -1.764,-10.075C-2.107,-10.179 -2.532,-10.233 -3.039,-10.233C-3.518,-10.233 -3.952,-10.161 -4.341,-10.016C-4.739,-9.866 -5.078,-9.677 -5.363,-9.433C-5.647,-9.192 -5.869,-8.913 -6.023,-8.601C-6.181,-8.284 -6.258,-7.958 -6.258,-7.61C-6.258,-7.208 -6.163,-6.864 -5.973,-6.593C-5.779,-6.321 -5.53,-6.091 -5.218,-5.901C-4.911,-5.716 -4.553,-5.558 -4.155,-5.427C-3.758,-5.295 -3.351,-5.169 -2.939,-5.042C-2.523,-4.915 -2.116,-4.78 -1.718,-4.64C-1.32,-4.495 -0.968,-4.318 -0.651,-4.101C-0.344,-3.889 -0.09,-3.626 0.1,-3.314C0.29,-3.007 0.389,-2.618 0.389,-2.161C0.389,-1.7 0.303,-1.267 0.14,-0.858C-0.027,-0.452 -0.267,-0.1 -0.579,0.198C-0.896,0.497 -1.275,0.737 -1.736,0.909C-2.188,1.085 -2.713,1.176 -3.292,1.176C-3.699,1.176 -4.061,1.144 -4.382,1.076C-4.693,1.013 -4.992,0.923 -5.263,0.81C-5.539,0.692 -5.792,0.552 -6.023,0.384C-6.258,0.212 -6.493,0.026 -6.719,-0.181L-6.651,-0.249C-6.629,-0.276 -6.611,-0.29 -6.593,-0.304C-6.579,-0.311 -6.552,-0.316 -6.516,-0.316C-6.457,-0.316 -6.353,-0.253 -6.213,-0.122C-6.077,0.009 -5.887,0.15 -5.634,0.312C-5.385,0.475 -5.069,0.62 -4.693,0.751C-4.313,0.882 -3.844,0.944 -3.292,0.944C-2.74,0.944 -2.252,0.868 -1.827,0.706C-1.402,0.542 -1.04,0.321 -0.75,0.04C-0.461,-0.235 -0.235,-0.56 -0.09,-0.936C0.063,-1.307 0.136,-1.71 0.136,-2.134C0.136,-2.573 0.036,-2.934 -0.154,-3.224C-0.344,-3.509 -0.597,-3.753 -0.904,-3.952C-1.221,-4.151 -1.574,-4.323 -1.972,-4.454C-2.369,-4.589 -2.776,-4.716 -3.192,-4.839C-3.604,-4.96 -4.006,-5.091 -4.409,-5.231C-4.807,-5.367 -5.164,-5.539 -5.476,-5.743C-5.779,-5.946 -6.032,-6.194 -6.227,-6.497C-6.417,-6.792 -6.516,-7.167 -6.516,-7.61C-6.516,-7.989 -6.43,-8.347 -6.258,-8.686C-6.091,-9.03 -5.855,-9.333 -5.548,-9.595C-5.241,-9.857 -4.875,-10.075 -4.449,-10.227C-4.024,-10.386 -3.554,-10.464 -3.039,-10.464C-2.405,-10.464 -1.845,-10.378 -1.361,-10.206C-0.877,-10.029 -0.412,-9.749 0.045,-9.36L0,-9.288Z" style="fill:white;fill-rule:nonzero;"></path>            </g>        </g>        <g transform="matrix(4.16667,0,0,4.16667,51289.5,0)">            <g transform="matrix(1,0,0,1,435.811,442.971)">                <path d="M0,12.643C-0.443,12.643 -0.832,12.607 -1.176,12.535C-1.519,12.467 -1.845,12.368 -2.143,12.241C-2.446,12.114 -2.731,11.956 -2.993,11.766C-3.237,11.589 -3.481,11.391 -3.726,11.173L-4.074,10.862L-3.549,10.364C-3.468,10.305 -3.355,10.269 -3.224,10.269C-2.993,10.269 -2.794,10.422 -2.623,10.586C-2.505,10.694 -2.333,10.825 -2.103,10.975C-1.89,11.11 -1.605,11.241 -1.257,11.364C-0.597,11.589 0.57,11.608 1.312,11.323C1.678,11.182 1.99,10.993 2.234,10.752C2.487,10.518 2.668,10.243 2.79,9.934C2.921,9.609 2.984,9.27 2.984,8.895C2.984,8.546 2.912,8.262 2.776,8.049C2.614,7.814 2.406,7.61 2.148,7.443C1.863,7.262 1.538,7.113 1.185,6.991C0.787,6.86 0.389,6.733 -0.022,6.612C-0.443,6.489 -0.854,6.354 -1.261,6.213C-1.691,6.064 -2.084,5.873 -2.423,5.657C-2.785,5.413 -3.079,5.12 -3.301,4.77C-3.541,4.4 -3.663,3.948 -3.663,3.418C-3.663,2.975 -3.563,2.551 -3.364,2.148C-3.165,1.75 -2.889,1.397 -2.541,1.099C-2.193,0.801 -1.772,0.561 -1.302,0.389C-0.262,0 1.112,0.063 2.08,0.412C2.609,0.602 3.129,0.914 3.618,1.334L3.907,1.579L3.654,1.99C3.536,2.153 3.364,2.247 3.174,2.247C2.948,2.247 2.758,2.108 2.614,1.985C2.546,1.922 2.419,1.827 2.171,1.692C1.963,1.574 1.7,1.469 1.397,1.375C0.818,1.194 -0.185,1.158 -0.899,1.424C-1.252,1.555 -1.542,1.723 -1.786,1.931C-2.025,2.129 -2.207,2.36 -2.342,2.627C-2.469,2.881 -2.532,3.138 -2.532,3.418C-2.532,3.731 -2.46,3.989 -2.324,4.182C-2.161,4.409 -1.962,4.594 -1.7,4.752C-1.42,4.92 -1.094,5.065 -0.723,5.186C-0.334,5.313 0.072,5.444 0.479,5.567C0.904,5.698 1.32,5.832 1.723,5.978C2.152,6.131 2.546,6.331 2.89,6.566C3.247,6.81 3.541,7.118 3.762,7.484C3.998,7.864 4.12,8.329 4.12,8.868C4.12,9.378 4.024,9.872 3.844,10.332C3.654,10.793 3.374,11.201 3.021,11.544C2.654,11.887 2.216,12.155 1.718,12.349C1.212,12.543 0.633,12.643 0,12.643" style="fill:white;fill-rule:nonzero;"></path>            </g>        </g>        <g transform="matrix(4.16667,0,0,4.16667,51289.5,0)">            <g transform="matrix(1,0,0,1,445.172,443.767)">                <path d="M0,11.177C0.529,11.177 1.004,11.118 1.437,10.992C1.867,10.87 2.261,10.707 2.623,10.499C2.984,10.291 3.319,10.052 3.631,9.781C3.943,9.509 4.241,9.224 4.531,8.921L4.531,5.448C2.116,5.531 0.325,5.828 -0.846,6.353C-2.017,6.878 -2.6,7.618 -2.6,8.577C-2.6,9.031 -2.523,9.419 -2.378,9.744C-2.225,10.07 -2.03,10.341 -1.791,10.554C-1.547,10.761 -1.271,10.919 -0.959,11.025C-0.651,11.128 -0.326,11.177 0,11.177M4.761,11.223C4.657,11.223 4.603,11.164 4.603,11.042L4.531,9.21C4.209,9.55 3.889,9.853 3.563,10.124C3.242,10.4 2.903,10.63 2.541,10.816C2.179,11.001 1.791,11.151 1.379,11.255C0.968,11.359 0.506,11.408 0,11.408C-0.339,11.408 -0.678,11.359 -1.018,11.255C-1.356,11.151 -1.669,10.984 -1.944,10.757C-2.225,10.531 -2.442,10.241 -2.614,9.884C-2.79,9.527 -2.876,9.093 -2.876,8.577C-2.876,8.072 -2.731,7.618 -2.433,7.216C-2.134,6.814 -1.682,6.47 -1.076,6.186C-0.466,5.906 0.298,5.679 1.229,5.517C2.157,5.349 3.26,5.249 4.531,5.222L4.531,3.776C4.531,3.179 4.467,2.65 4.336,2.184C4.205,1.714 4.015,1.32 3.762,0.999C3.509,0.679 3.192,0.429 2.808,0.257C2.424,0.085 1.98,-0.001 1.474,-0.001C1.076,-0.001 0.714,0.04 0.389,0.122C0.067,0.208 -0.217,0.316 -0.471,0.439C-0.724,0.56 -0.945,0.692 -1.131,0.837C-1.32,0.986 -1.483,1.116 -1.619,1.243C-1.759,1.365 -1.872,1.465 -1.954,1.551C-2.04,1.636 -2.103,1.677 -2.139,1.677C-2.17,1.677 -2.207,1.656 -2.252,1.61L-2.302,1.564C-1.75,0.982 -1.176,0.538 -0.588,0.23C0.004,-0.077 0.687,-0.231 1.474,-0.231C2.044,-0.231 2.541,-0.14 2.962,0.045C3.382,0.23 3.726,0.493 4.001,0.837C4.277,1.185 4.481,1.605 4.612,2.098C4.743,2.595 4.807,3.152 4.807,3.776L4.807,11.223L4.761,11.223Z" style="fill:white;fill-rule:nonzero;"></path>            </g>        </g>        <g transform="matrix(4.16667,0,0,4.16667,51289.5,0)">            <g transform="matrix(1,0,0,1,449.264,449.033)">                <path d="M0,0.639C-2.121,0.739 -3.721,1.024 -4.757,1.489C-5.765,1.942 -6.253,2.537 -6.253,3.311C-6.253,3.7 -6.19,4.03 -6.068,4.297C-5.946,4.564 -5.783,4.785 -5.593,4.952C-5.394,5.129 -5.168,5.256 -4.915,5.342C-4.209,5.576 -3.387,5.482 -2.776,5.305C-2.374,5.192 -2.012,5.038 -1.691,4.854C-1.352,4.659 -1.04,4.438 -0.75,4.184C-0.493,3.957 -0.244,3.723 0,3.479L0,0.639ZM-4.092,6.58C-4.481,6.58 -4.865,6.522 -5.24,6.405C-5.629,6.286 -5.991,6.096 -6.316,5.834C-6.642,5.563 -6.9,5.229 -7.104,4.808C-7.302,4.397 -7.406,3.89 -7.406,3.311C-7.406,2.714 -7.23,2.167 -6.877,1.688C-6.538,1.227 -6.027,0.833 -5.354,0.522C-4.707,0.223 -3.893,-0.017 -2.939,-0.184C-2.098,-0.334 -1.112,-0.433 0,-0.474L0,-1.491C0,-2.047 -0.059,-2.545 -0.176,-2.965C-0.298,-3.385 -0.461,-3.724 -0.673,-3.996C-0.891,-4.267 -1.144,-4.466 -1.465,-4.607C-2.048,-4.873 -2.939,-4.882 -3.595,-4.715C-3.884,-4.638 -4.146,-4.543 -4.372,-4.435C-4.599,-4.326 -4.797,-4.205 -4.96,-4.082C-5.137,-3.941 -5.29,-3.815 -5.421,-3.697C-5.553,-3.58 -5.656,-3.48 -5.742,-3.399C-5.955,-3.187 -6.348,-3.029 -6.66,-3.349L-6.954,-3.652L-6.715,-4.006C-6.127,-4.621 -5.512,-5.099 -4.879,-5.425C-4.228,-5.769 -3.468,-5.941 -2.618,-5.941C-1.989,-5.941 -1.429,-5.832 -0.954,-5.624C-0.475,-5.412 -0.067,-5.103 0.253,-4.701C0.565,-4.303 0.801,-3.829 0.945,-3.281C1.085,-2.748 1.153,-2.146 1.153,-1.491L1.153,6.395L0.715,6.395C0.317,6.395 0.068,6.142 0.068,5.776L0.041,4.948C-0.054,5.034 -0.149,5.116 -0.239,5.192C-0.587,5.487 -0.963,5.735 -1.347,5.938C-1.741,6.142 -2.166,6.305 -2.609,6.412C-3.043,6.522 -3.545,6.58 -4.092,6.58" style="fill:white;fill-rule:nonzero;"></path>            </g>        </g>        <g transform="matrix(4.16667,0,0,4.16667,51289.5,0)">            <g transform="matrix(1,0,0,1,457.362,438.661)">                <path d="M0,16.238C0.837,16.238 1.61,16.004 2.329,15.537C3.048,15.067 3.663,14.426 4.187,13.607L4.187,7.267C3.69,6.476 3.138,5.92 2.532,5.593C1.926,5.263 1.23,5.105 0.438,5.105C-0.353,5.105 -1.04,5.251 -1.619,5.535C-2.207,5.825 -2.69,6.222 -3.075,6.729C-3.464,7.231 -3.753,7.828 -3.943,8.506C-4.133,9.193 -4.232,9.93 -4.232,10.717C-4.232,12.59 -3.871,13.978 -3.156,14.883C-2.441,15.787 -1.384,16.238 0,16.238M4.396,16.329C4.287,16.329 4.232,16.27 4.232,16.148L4.187,13.972C3.681,14.742 3.07,15.347 2.352,15.795C1.637,16.243 0.85,16.468 0,16.468C-1.465,16.468 -2.582,15.999 -3.351,15.058C-4.124,14.117 -4.508,12.675 -4.508,10.717C-4.508,9.904 -4.404,9.144 -4.196,8.429C-3.993,7.715 -3.681,7.095 -3.265,6.571C-2.853,6.047 -2.338,5.631 -1.718,5.328C-1.103,5.025 -0.384,4.875 0.438,4.875C1.266,4.875 1.99,5.039 2.614,5.369C3.238,5.699 3.758,6.209 4.187,6.901L4.187,-0.23L4.463,-0.23L4.463,16.329L4.396,16.329Z" style="fill:white;fill-rule:nonzero;"></path>            </g>        </g>        <g transform="matrix(4.16667,0,0,4.16667,51289.5,0)">            <g transform="matrix(1,0,0,1,457.801,449.355)">                <path d="M0,-5.15C-0.719,-5.15 -1.343,-5.023 -1.867,-4.765C-2.383,-4.507 -2.826,-4.151 -3.165,-3.703C-3.513,-3.242 -3.784,-2.695 -3.961,-2.066C-4.137,-1.429 -4.228,-0.723 -4.228,0.023C-4.228,1.786 -3.902,3.092 -3.251,3.916C-2.618,4.716 -1.695,5.106 -0.438,5.106C0.317,5.106 1,4.897 1.65,4.477C2.279,4.065 2.84,3.496 3.314,2.782L3.314,-3.296C2.872,-3.965 2.392,-4.441 1.886,-4.716C1.348,-5.005 0.715,-5.15 0,-5.15M-0.438,6.213C-2.035,6.213 -3.278,5.684 -4.128,4.639C-4.96,3.631 -5.385,2.076 -5.385,0.023C-5.385,-0.832 -5.276,-1.646 -5.06,-2.392C-4.833,-3.152 -4.499,-3.826 -4.047,-4.395C-3.595,-4.969 -3.025,-5.431 -2.347,-5.761C-1.673,-6.091 -0.881,-6.263 0,-6.263C0.896,-6.263 1.696,-6.078 2.379,-5.711C2.713,-5.535 3.025,-5.308 3.314,-5.037L3.314,-11.363L4.463,-11.363L4.463,6.073L4.024,6.073C3.608,6.073 3.355,5.811 3.355,5.454L3.333,4.504C2.976,4.879 2.578,5.204 2.148,5.471C1.361,5.964 0.493,6.213 -0.438,6.213" style="fill:white;fill-rule:nonzero;"></path>            </g>        </g>        <g transform="matrix(4.16667,0,0,4.16667,51289.5,0)">            <g transform="matrix(1,0,0,1,467.74,443.974)">                <path d="M0,14.904C-0.022,14.967 -0.059,15.026 -0.104,15.076C-0.154,15.13 -0.208,15.157 -0.276,15.157L-0.438,15.157L1.497,10.821L-3.387,-0.253L-3.224,-0.253C-3.161,-0.253 -3.111,-0.24 -3.07,-0.202C-3.034,-0.167 -3.007,-0.13 -2.989,-0.095L1.497,10.143C1.524,10.216 1.551,10.283 1.578,10.35C1.605,10.419 1.628,10.491 1.642,10.567C1.66,10.491 1.678,10.419 1.705,10.35C1.732,10.283 1.759,10.216 1.791,10.143L6.276,-0.095C6.335,-0.202 6.398,-0.253 6.48,-0.253L6.647,-0.253L0,14.904Z" style="fill:white;fill-rule:nonzero;"></path>            </g>        </g>        <g transform="matrix(4.16667,0,0,4.16667,51289.5,0)">            <g transform="matrix(1,0,0,1,467.464,443.284)">                <path d="M0,16.287L-0.841,16.287L1.289,11.512L-3.78,0L-2.948,0C-2.717,0 -2.568,0.099 -2.487,0.18C-2.415,0.244 -2.351,0.33 -2.311,0.429L1.917,10.082L6.15,0.42C6.344,0.035 6.638,0 6.756,0L7.597,0L2.098,12.524L1.899,13.47L1.836,13.131L0.679,15.771C0.638,15.871 0.574,15.971 0.498,16.06C0.371,16.201 0.194,16.287 0,16.287" style="fill:white;fill-rule:nonzero;"></path>            </g>        </g>        <g transform="matrix(4.16667,0,0,4.16667,51289.5,0)">            <g transform="matrix(1,0,0,1,173.748,431.721)">                <path d="M0,-69.463L0,-64.643L17.625,-64.643L17.625,-4.817L0,-4.817L0,0L22.446,0L22.446,-69.463L0,-69.463Z" style="fill:white;fill-rule:nonzero;"></path>            </g>        </g>        <g transform="matrix(4.16667,0,0,4.16667,51289.5,0)">            <g transform="matrix(1,0,0,1,120.202,433.925)">                <path d="M0,-73.968L0.021,-66.847L43.759,-66.847L43.759,-71.667L4.827,-71.667L4.82,-73.995L46.488,-85.304L46.488,-51.007C46.488,-48.502 44.451,-46.468 41.946,-46.468L41.946,-46.458C41.928,-46.458 41.91,-46.468 41.892,-46.468C36.73,-46.468 32.53,-42.267 32.53,-37.103C32.53,-35.773 33.608,-34.693 34.94,-34.693C36.271,-34.693 37.35,-35.773 37.35,-37.103C37.35,-39.608 39.387,-41.642 41.946,-41.642C43.594,-41.642 45.141,-42.077 46.488,-42.827L46.488,11.351L4.82,0.124L4.827,-2.204L43.759,-2.204L43.759,-7.021L0.021,-7.021L0,0.12L0.027,3.823L51.309,17.641L51.309,-91.609L0.027,-77.691L0,-73.968Z" style="fill:white;fill-rule:nonzero;"></path>            </g>        </g>        <g transform="matrix(4.16667,0,0,4.16667,51289.5,0)">            <g transform="matrix(1,0,0,1,0,-37.251)">                <rect x="261.24" y="437.443" width="10.102" height="4.255" style="fill:white;"></rect>            </g>        </g>    </g></svg>
